# xmcd
#
# Track frame offsets:
#	150
#	16555
#	34797
#	48762
#	66060
#	85990
#	106007
#	124172
#	140040
#	157302
#	170687
#	185730
#
# Disc length: 2702 seconds
#
# Revision: 3
# Processed by: cddbd v1.5.2PL0 Copyright (c) Steve Scherf et al.
# Submitted via: audiograbber 1.83.01
#
DISCID=9f0a8c0c
DTITLE=Diana DeGarmo - Blue Skies
DYEAR=2004
DGENRE=Pop
TTITLE0=Cardboard Castles
TTITLE1=Blue Skies
TTITLE2=Emotional
TTITLE3=Then I Woke Up
TTITLE4=All I Never Wanted
TTITLE5=Go On And Cry
TTITLE6=The Difference In Me
TTITLE7=Till You Want Me
TTITLE8=Dreams
TTITLE9=Boy Like You
TTITLE10=Dream, Dream, Dream
TTITLE11=Don't Cry Out Loud
EXTD=
EXTT0=
EXTT1=
EXTT2=
EXTT3=
EXTT4=
EXTT5=
EXTT6=
EXTT7=
EXTT8=
EXTT9=
EXTT10=
EXTT11=
PLAYORDER=
